RobotoSerifTextWide-HairlineItalic 02h.ufo
<glyph name="zero" format="2">
  <advance width="652"/>
  <unicode hex="0030"/>
  <outline>
    <contour>
      <point x="296" y="-11" type="curve" smooth="yes"/>
      <point x="480" y="-11"/>
      <point x="616" y="154"/>
      <point x="616" y="342" type="curve" smooth="yes"/>
      <point x="616" y="508"/>
      <point x="512" y="619"/>
      <point x="370" y="619" type="curve" smooth="yes"/>
      <point x="189" y="619"/>
      <point x="50" y="454"/>
      <point x="50" y="266" type="curve" smooth="yes"/>
      <point x="50" y="102"/>
      <point x="156" y="-11"/>
    </contour>
    <contour>
      <point x="299" y="19" type="curve" smooth="yes"/>
      <point x="175" y="19"/>
      <point x="93" y="116"/>
      <point x="93" y="259" type="curve" smooth="yes"/>
      <point x="93" y="283"/>
      <point x="95" y="306"/>
      <point x="99" y="329" type="curve" smooth="yes"/>
      <point x="126" y="475"/>
      <point x="233" y="589"/>
      <point x="368" y="589" type="curve" smooth="yes"/>
      <point x="489" y="589.0"/>
      <point x="573.0" y="495.0"/>
      <point x="573" y="347" type="curve" smooth="yes"/>
      <point x="573" y="323"/>
      <point x="571" y="300"/>
      <point x="567" y="277" type="curve" smooth="yes"/>
      <point x="541.0030054196974" y="132.01676099446607"/>
      <point x="435" y="19"/>
    </contour>
  </outline>
</glyph>
<glyph name="three" format="2">
  <advance width="652"/>
  <unicode hex="0033"/>
  <outline>
    <contour>
      <point x="310" y="-90" type="curve" smooth="yes"/>
      <point x="159" y="-90"/>
      <point x="63" y="-20"/>
      <point x="18" y="90" type="curve"/>
      <point x="50" y="104" type="line"/>
      <point x="83.17653931103384" y="17.539927856093655"/>
      <point x="160" y="-60"/>
      <point x="310" y="-60" type="curve" smooth="yes"/>
      <point x="443.0" y="-60.0"/>
      <point x="527.0" y="10.587209302325576"/>
      <point x="527" y="111" type="curve" smooth="yes"/>
      <point x="527.0" y="201.14102564102564"/>
      <point x="452" y="269"/>
      <point x="300" y="269" type="curve" smooth="yes"/>
      <point x="228" y="269" type="line"/>
      <point x="233" y="299" type="line"/>
      <point x="297" y="299" type="line" smooth="yes"/>
      <point x="453.63673469387754" y="299"/>
      <point x="543.0" y="358.0"/>
      <point x="543" y="458" type="curve" smooth="yes"/>
      <point x="543.0" y="542.0"/>
      <point x="475.6256983240223" y="588.0"/>
      <point x="363" y="588" type="curve" smooth="yes"/>
      <point x="266.0" y="588.0"/>
      <point x="208.00551262492075" y="560.0042525963675"/>
      <point x="173" y="533" type="curve"/>
      <point x="183.7909431354887" y="557.5248707624743"/>
      <point x="205.98186026845823" y="574.0362794630835"/>
      <point x="205" y="576" type="curve"/>
      <point x="187" y="473" type="line"/>
      <point x="138" y="473" type="line"/>
      <point x="154" y="565" type="line"/>
      <point x="189" y="587"/>
      <point x="260" y="618"/>
      <point x="363" y="618" type="curve" smooth="yes"/>
      <point x="495" y="618"/>
      <point x="585.0" y="559"/>
      <point x="585" y="459" type="curve" smooth="yes"/>
      <point x="585.0" y="346.3636363636364"/>
      <point x="472.24609375" y="282.0"/>
      <point x="334" y="282" type="curve"/>
      <point x="384" y="291" type="line"/>
      <point x="380" y="278" type="line"/>
      <point x="340" y="288" type="line"/>
      <point x="510" y="275"/>
      <point x="570.0" y="199.5"/>
      <point x="570" y="111" type="curve" smooth="yes"/>
      <point x="570" y="-3"/>
      <point x="467" y="-90"/>
    </contour>
  </outline>
</glyph>
<glyph name="five" format="2">
  <advance width="652"/>
  <unicode hex="0035"/>
  <outline>
    <contour>
      <point x="312" y="-90" type="curve" smooth="yes"/>
      <point x="482" y="-90"/>
      <point x="590.0" y="19.0"/>
      <point x="590" y="159" type="curve" smooth="yes"/>
      <point x="590.0" y="274.0"/>
      <point x="507" y="366"/>
      <point x="353" y="366" type="curve" smooth="yes"/>
      <point x="259" y="366.0"/>
      <point x="179" y="329"/>
      <point x="127" y="259" type="curve"/>
      <point x="149" y="265" type="line"/>
      <point x="207" y="589" type="line"/>
      <point x="190" y="572" type="line"/>
      <point x="586" y="572" type="line"/>
      <point x="601" y="609" type="line"/>
      <point x="179" y="609" type="line"/>
      <point x="113" y="240" type="line"/>
      <point x="140" y="240" type="line"/>
      <point x="192.80366521706318" y="304.7592120586624"/>
      <point x="260" y="336"/>
      <point x="353" y="336" type="curve" smooth="yes"/>
      <point x="476" y="336.0"/>
      <point x="547.0" y="262.0"/>
      <point x="547" y="158" type="curve" smooth="yes"/>
      <point x="547.0" y="33.42857142857143"/>
      <point x="459" y="-60"/>
      <point x="311" y="-60" type="curve" smooth="yes"/>
      <point x="172" y="-60.0"/>
      <point x="92.15271165470588" y="26.669124748137264"/>
      <point x="62" y="92" type="curve"/>
      <point x="31" y="75" type="line"/>
      <point x="76.16717071235351" y="-14.330626519988044"/>
      <point x="169" y="-90.0"/>
    </contour>
  </outline>
</glyph>
<glyph name="six" format="2">
  <advance width="652"/>
  <unicode hex="0036"/>
  <outline>
    <contour>
      <point x="343" y="-10" type="curve" smooth="yes"/>
      <point x="500" y="-10"/>
      <point x="612" y="111"/>
      <point x="612" y="243" type="curve" smooth="yes"/>
      <point x="612.0" y="363.0"/>
      <point x="524" y="459"/>
      <point x="376" y="459" type="curve" smooth="yes"/>
      <point x="260" y="459.0"/>
      <point x="153" y="393"/>
      <point x="96" y="291" type="curve"/>
      <point x="108" y="264" type="line"/>
      <point x="165" y="368"/>
      <point x="263.0498084291188" y="429.0"/>
      <point x="376" y="429" type="curve" smooth="yes"/>
      <point x="502.415" y="429.0"/>
      <point x="569.0" y="343.54301075268813"/>
      <point x="569" y="242" type="curve" smooth="yes"/>
      <point x="569" y="206"/>
      <point x="562" y="172"/>
      <point x="546" y="141" type="curve" smooth="yes"/>
      <point x="510.76647351046324" y="70.53294702092646"/>
      <point x="438" y="20"/>
      <point x="342" y="20" type="curve" smooth="yes"/>
      <point x="217.0" y="20.0"/>
      <point x="116.0" y="96"/>
      <point x="116" y="263" type="curve" smooth="yes"/>
      <point x="116" y="288"/>
      <point x="117" y="306"/>
      <point x="120" y="323" type="curve" smooth="yes"/>
      <point x="157" y="532"/>
      <point x="361" y="687"/>
      <point x="608" y="709" type="curve"/>
      <point x="605" y="740" type="line"/>
      <point x="272" y="705"/>
      <point x="73.0" y="477.0"/>
      <point x="73" y="259" type="curve" smooth="yes"/>
      <point x="73" y="83"/>
      <point x="195" y="-10"/>
    </contour>
  </outline>
</glyph>
<glyph name="seven" format="2">
  <advance width="652"/>
  <unicode hex="0037"/>
  <outline>
    <contour>
      <point x="305" y="572" type="line" smooth="yes"/>
      <point x="191.0" y="572.0"/>
      <point x="171" y="565"/>
      <point x="160" y="528" type="curve" smooth="yes"/>
      <point x="133" y="441" type="line"/>
      <point x="106" y="441" type="line"/>
      <point x="136" y="609" type="line"/>
      <point x="664" y="609" type="line"/>
      <point x="659" y="571" type="line"/>
      <point x="475.2626602358666" y="413.2255452025376"/>
      <point x="317.9944679417607" y="235.97161419296907"/>
      <point x="257" y="-77" type="curve"/>
      <point x="211" y="-77" type="line"/>
      <point x="279" y="243"/>
      <point x="460" y="446"/>
      <point x="635" y="586" type="curve"/>
      <point x="646" y="572" type="line"/>
    </contour>
  </outline>
</glyph>
<glyph name="braceleft" format="2">
  <advance width="347"/>
  <unicode hex="007B"/>
  <outline>
    <contour>
      <point x="256.0" y="267.3898305084746"/>
      <point x="246.74292956365505" y="277.1782962814883"/>
      <point x="139" y="307" type="curve"/>
      <point x="140" y="311" type="line"/>
      <point x="262.61090379693724" y="333.20512430968154"/>
      <point x="275.0" y="340.7843137254902"/>
      <point x="275" y="360" type="curve" smooth="yes"/>
      <point x="275.0" y="390.2448979591837"/>
      <point x="188.0" y="519.5843621399176"/>
      <point x="188" y="607" type="curve" smooth="yes"/>
      <point x="188.0" y="679.0"/>
      <point x="253.0502793296089" y="725.0"/>
      <point x="352" y="725" type="curve" smooth="yes"/>
      <point x="367" y="725"/>
      <point x="384" y="725"/>
      <point x="401" y="723" type="curve"/>
      <point x="397" y="750" type="line"/>
      <point x="379" y="752"/>
      <point x="361" y="753"/>
      <point x="343" y="753" type="curve" smooth="yes"/>
      <point x="241.74881516587678" y="753.0"/>
      <point x="147.0" y="706.0"/>
      <point x="147" y="609" type="curve" smooth="yes"/>
      <point x="147.0" y="531"/>
      <point x="201.56593128434815" y="438.8816119856929"/>
      <point x="243" y="357" type="curve"/>
      <point x="254" y="365" type="line"/>
      <point x="74" y="322" type="line"/>
      <point x="72" y="304" type="line"/>
      <point x="235" y="244" type="line"/>
      <point x="227" y="253" type="line"/>
      <point x="137" y="158"/>
      <point x="43.0" y="68"/>
      <point x="43" y="-14" type="curve" smooth="yes"/>
      <point x="43.0" y="-96.0"/>
      <point x="109.32852685182871" y="-143.06578679523457"/>
      <point x="256" y="-144" type="curve"/>
      <point x="256" y="-144" type="line"/>
      <point x="265" y="-118" type="line"/>
      <point x="265" y="-118" type="line"/>
      <point x="134.7886367359607" y="-116.1530303083115"/>
      <point x="84.0" y="-76.0"/>
      <point x="84" y="-12" type="curve" smooth="yes"/>
      <point x="84.0" y="82.72307692307692"/>
      <point x="256.0" y="221.7846153846154"/>
      <point x="256" y="250" type="curve" smooth="yes"/>
    </contour>
  </outline>
</glyph>
<glyph name="asciitilde" format="2">
  <advance width="624"/>
  <unicode hex="007E"/>
  <outline>
    <contour>
      <point x="201" y="394" type="curve" smooth="yes"/>
      <point x="121" y="394"/>
      <point x="85" y="344"/>
      <point x="64" y="283" type="curve"/>
      <point x="94" y="273" type="line"/>
      <point x="110" y="316"/>
      <point x="131" y="361"/>
      <point x="204" y="361" type="curve" smooth="yes"/>
      <point x="295" y="361"/>
      <point x="316" y="267"/>
      <point x="424" y="267" type="curve" smooth="yes"/>
      <point x="502" y="267"/>
      <point x="542" y="334"/>
      <point x="562" y="383" type="curve"/>
      <point x="534" y="395" type="line"/>
      <point x="524" y="370"/>
      <point x="495" y="301"/>
      <point x="421" y="301" type="curve" smooth="yes"/>
      <point x="337" y="301"/>
      <point x="317" y="394"/>
    </contour>
  </outline>
</glyph>
<glyph name="germandbls" format="2">
  <advance width="610"/>
  <unicode hex="00DF"/>
  <outline>
    <contour>
      <point x="56" y="508" type="line"/>
      <point x="53" y="477" type="line"/>
      <point x="202" y="477" type="line"/>
      <point x="206" y="508" type="line"/>
    </contour>
    <contour>
      <point x="82" y="-223" type="line"/>
      <point x="118" y="-223" type="line"/>
      <point x="223" y="591" type="line" smooth="yes"/>
      <point x="236" y="684"/>
      <point x="293" y="721"/>
      <point x="376" y="721" type="curve" smooth="yes"/>
      <point x="470" y="721"/>
      <point x="514" y="671"/>
      <point x="516" y="610" type="curve" smooth="yes"/>
      <point x="519" y="517"/>
      <point x="424" y="439"/>
      <point x="273" y="436" type="curve"/>
      <point x="268" y="407" type="line"/>
      <point x="412" y="395"/>
      <point x="505" y="312"/>
      <point x="508" y="204" type="curve" smooth="yes"/>
      <point x="511" y="82"/>
      <point x="437" y="20"/>
      <point x="333" y="20" type="curve" smooth="yes"/>
      <point x="275" y="20"/>
      <point x="215" y="45"/>
      <point x="210" y="47" type="curve"/>
      <point x="203" y="13" type="line"/>
      <point x="225" y="4"/>
      <point x="273" y="-11"/>
      <point x="334" y="-11" type="curve" smooth="yes"/>
      <point x="475" y="-11"/>
      <point x="557" y="78"/>
      <point x="553" y="204" type="curve" smooth="yes"/>
      <point x="549" y="318"/>
      <point x="446" y="404"/>
      <point x="303" y="424" type="curve"/>
      <point x="325" y="413" type="line"/>
      <point x="329" y="428" type="line"/>
      <point x="296" y="418" type="line"/>
      <point x="429" y="422"/>
      <point x="558" y="497"/>
      <point x="555" y="610" type="curve" smooth="yes"/>
      <point x="553" y="685"/>
      <point x="497" y="752"/>
      <point x="375" y="752" type="curve" smooth="yes"/>
      <point x="271" y="752"/>
      <point x="192" y="702"/>
      <point x="180" y="592" type="curve" smooth="yes"/>
    </contour>
  </outline>
</glyph>
<glyph name="Hbar" format="2">
  <advance width="897"/>
  <unicode hex="0126"/>
  <outline>
    <contour>
      <point x="204" y="381" type="line"/>
      <point x="199" y="351" type="line"/>
      <point x="732" y="351" type="line"/>
      <point x="737" y="381" type="line"/>
    </contour>
    <contour>
      <point x="83" y="513" type="line"/>
      <point x="879" y="513" type="line"/>
      <point x="884" y="544" type="line"/>
      <point x="87" y="544" type="line"/>
    </contour>
    <contour>
      <point x="-8" y="0" type="line"/>
      <point x="257" y="0" type="line"/>
      <point x="264" y="31" type="line"/>
      <point x="253" y="31" type="line" smooth="yes"/>
      <point x="209" y="31"/>
      <point x="151" y="34"/>
      <point x="152" y="41" type="curve" smooth="yes"/>
      <point x="264" y="669" type="line" smooth="yes"/>
      <point x="265" y="676"/>
      <point x="321" y="679"/>
      <point x="365" y="679" type="curve" smooth="yes"/>
      <point x="376" y="679" type="line"/>
      <point x="383" y="710" type="line"/>
      <point x="118" y="710" type="line"/>
      <point x="112" y="679" type="line"/>
      <point x="125" y="679" type="line" smooth="yes"/>
      <point x="182" y="679"/>
      <point x="224" y="672"/>
      <point x="219" y="643" type="curve" smooth="yes"/>
      <point x="115" y="67" type="line" smooth="yes"/>
      <point x="110" y="38"/>
      <point x="68" y="31"/>
      <point x="12" y="31" type="curve" smooth="yes"/>
      <point x="-2" y="31" type="line"/>
    </contour>
    <contour>
      <point x="525" y="0" type="line"/>
      <point x="789" y="0" type="line"/>
      <point x="795" y="31" type="line"/>
      <point x="783" y="31" type="line" smooth="yes"/>
      <point x="725" y="31"/>
      <point x="683" y="38"/>
      <point x="688" y="67" type="curve" smooth="yes"/>
      <point x="792" y="643" type="line" smooth="yes"/>
      <point x="797" y="672"/>
      <point x="839" y="679"/>
      <point x="896" y="679" type="curve" smooth="yes"/>
      <point x="909" y="679" type="line"/>
      <point x="915" y="710" type="line"/>
      <point x="650" y="710" type="line"/>
      <point x="643" y="679" type="line"/>
      <point x="654" y="679" type="line" smooth="yes"/>
      <point x="698" y="679"/>
      <point x="756" y="676"/>
      <point x="755" y="669" type="curve" smooth="yes"/>
      <point x="643" y="41" type="line" smooth="yes"/>
      <point x="642" y="34"/>
      <point x="586" y="31"/>
      <point x="542" y="31" type="curve" smooth="yes"/>
      <point x="531" y="31" type="line"/>
    </contour>
  </outline>
</glyph>
<glyph name="itilde" format="2">
  <advance width="303"/>
  <unicode hex="0129"/>
  <outline>
    <contour>
      <point x="242" y="616" type="curve" smooth="yes"/>
      <point x="301" y="616"/>
      <point x="321" y="652"/>
      <point x="345" y="717" type="curve"/>
      <point x="316" y="728" type="line"/>
      <point x="298" y="679"/>
      <point x="282" y="651"/>
      <point x="246" y="651" type="curve" smooth="yes"/>
      <point x="192" y="651"/>
      <point x="184" y="727"/>
      <point x="113" y="727" type="curve" smooth="yes"/>
      <point x="62" y="727"/>
      <point x="30" y="698"/>
      <point x="12" y="628" type="curve"/>
      <point x="40" y="616" type="line"/>
      <point x="55" y="667"/>
      <point x="74" y="692"/>
      <point x="106" y="692" type="curve" smooth="yes"/>
      <point x="156" y="692"/>
      <point x="164" y="616"/>
    </contour>
    <component base="dotlessi"/>
  </outline>
</glyph>
<glyph name="imacron" format="2">
  <advance width="303"/>
  <unicode hex="012B"/>
  <outline>
    <contour>
      <point x="59" y="689" type="line"/>
      <point x="53" y="658" type="line"/>
      <point x="313" y="658" type="line"/>
      <point x="317" y="689" type="line"/>
    </contour>
    <component base="dotlessi"/>
  </outline>
</glyph>
<glyph name="Lslash" format="2">
  <advance width="667"/>
  <unicode hex="0141"/>
  <outline>
    <contour>
      <point x="14" y="207" type="line"/>
      <point x="472" y="479" type="line"/>
      <point x="479" y="520" type="line"/>
      <point x="20" y="248" type="line"/>
    </contour>
    <component base="L"/>
  </outline>
</glyph>
<glyph name="naira" format="2">
  <advance width="652"/>
  <unicode hex="20A6"/>
  <outline>
    <contour>
      <point x="-32" y="0" type="line"/>
      <point x="192" y="0" type="line"/>
      <point x="199" y="31" type="line"/>
      <point x="183" y="31" type="line" smooth="yes"/>
      <point x="147" y="31"/>
      <point x="92" y="39"/>
      <point x="93" y="46" type="curve" smooth="yes"/>
      <point x="211" y="706" type="line"/>
      <point x="199" y="702" type="line"/>
      <point x="453" y="0" type="line"/>
      <point x="499" y="0" type="line"/>
      <point x="613" y="638" type="line" smooth="yes"/>
      <point x="617" y="667"/>
      <point x="648" y="679"/>
      <point x="689" y="679" type="curve" smooth="yes"/>
      <point x="703" y="679" type="line"/>
      <point x="710" y="710" type="line"/>
      <point x="485" y="710" type="line"/>
      <point x="478" y="679" type="line"/>
      <point x="494" y="679" type="line"/>
      <point x="530" y="679"/>
      <point x="585" y="671"/>
      <point x="583" y="664" type="curve" smooth="yes"/>
      <point x="471" y="27" type="line"/>
      <point x="473" y="42" type="line"/>
      <point x="238" y="710" type="line"/>
      <point x="94" y="710" type="line"/>
      <point x="88" y="679" type="line"/>
      <point x="100" y="679" type="line" smooth="yes"/>
      <point x="142" y="679"/>
      <point x="170" y="672"/>
      <point x="165" y="643" type="curve" smooth="yes"/>
      <point x="63" y="72" type="line" smooth="yes"/>
      <point x="59" y="43"/>
      <point x="28" y="31"/>
      <point x="-13" y="31" type="curve" smooth="yes"/>
      <point x="-26" y="31" type="line"/>
    </contour>
    <contour>
      <point x="153" y="441" type="line"/>
      <point x="39" y="441" type="line"/>
      <point x="35" y="410" type="line"/>
      <point x="141" y="410" type="line"/>
    </contour>
    <contour>
      <point x="321" y="410" type="line"/>
      <point x="543" y="410" type="line"/>
      <point x="549" y="410" type="line"/>
      <point x="662" y="410" type="line"/>
      <point x="666" y="441" type="line"/>
      <point x="315" y="441" type="line"/>
    </contour>
    <contour>
      <point x="534" y="251" type="line"/>
      <point x="634" y="251" type="line"/>
      <point x="639" y="282" type="line"/>
      <point x="538" y="282" type="line"/>
    </contour>
    <contour>
      <point x="380" y="282" type="line"/>
      <point x="129" y="282" type="line"/>
      <point x="119" y="282" type="line"/>
      <point x="11" y="282" type="line"/>
      <point x="7" y="251" type="line"/>
      <point x="388" y="251" type="line"/>
    </contour>
  </outline>
</glyph>
<glyph name="d.italic" format="2">
  <advance width="747"/>
  <outline>
    <contour>
      <point x="634" y="81" type="curve"/>
      <point x="615" y="735" type="line"/>
      <point x="409" y="735" type="line"/>
      <point x="410" y="689" type="line"/>
      <point x="424" y="687" type="line" smooth="yes"/>
      <point x="485" y="678"/>
      <point x="513" y="671"/>
      <point x="514" y="642" type="curve" smooth="yes"/>
      <point x="529" y="115" type="line"/>
      <point x="538" y="112" type="line"/>
      <point x="542" y="0" type="line"/>
      <point x="734" y="0" type="line"/>
      <point x="732" y="45" type="line"/>
      <point x="731" y="45" type="line"/>
      <point x="676" y="45"/>
      <point x="635" y="52"/>
    </contour>
    <contour>
      <point x="328" y="518" type="curve" smooth="yes"/>
      <point x="162" y="518"/>
      <point x="53" y="409"/>
      <point x="57" y="250" type="curve" smooth="yes"/>
      <point x="62" y="94"/>
      <point x="174" y="-10"/>
      <point x="337" y="-10" type="curve" smooth="yes"/>
      <point x="433" y="-10"/>
      <point x="491" y="28"/>
      <point x="549" y="107" type="curve"/>
      <point x="546" y="191" type="line"/>
      <point x="498" y="97"/>
      <point x="434" y="47"/>
      <point x="342" y="47" type="curve" smooth="yes"/>
      <point x="233" y="47"/>
      <point x="170" y="126"/>
      <point x="166" y="250" type="curve" smooth="yes"/>
      <point x="163" y="378"/>
      <point x="221" y="461"/>
      <point x="334" y="461" type="curve" smooth="yes"/>
      <point x="422" y="461"/>
      <point x="490" y="418"/>
      <point x="542" y="322" type="curve"/>
      <point x="540" y="412" type="line"/>
      <point x="481" y="486"/>
      <point x="422" y="518"/>
    </contour>
  </outline>
</glyph>
<glyph name="f_f_b" format="2">
  <advance width="1361"/>
  <outline>
    <contour>
      <point x="56" y="508" type="line"/>
      <point x="53" y="477" type="line"/>
      <point x="499" y="477" type="line"/>
      <point x="502" y="508" type="line"/>
    </contour>
    <contour>
      <point x="412" y="508" type="line"/>
      <point x="409" y="477" type="line"/>
      <point x="740" y="477" type="line"/>
      <point x="743" y="508" type="line"/>
    </contour>
    <contour>
      <point x="1012" y="-11" type="curve" smooth="yes"/>
      <point x="1201" y="-11"/>
      <point x="1318" y="146"/>
      <point x="1312" y="322" type="curve" smooth="yes"/>
      <point x="1309" y="433"/>
      <point x="1259" y="518"/>
      <point x="1138" y="518" type="curve" smooth="yes"/>
      <point x="1022" y="518"/>
      <point x="938" y="433"/>
      <point x="865" y="299" type="curve"/>
      <point x="872" y="267" type="line"/>
      <point x="946" y="394"/>
      <point x="1027" y="487"/>
      <point x="1137" y="487" type="curve" smooth="yes"/>
      <point x="1228" y="487"/>
      <point x="1266" y="413"/>
      <point x="1268" y="322" type="curve" smooth="yes"/>
      <point x="1273" y="163"/>
      <point x="1182" y="20"/>
      <point x="1010" y="20" type="curve" smooth="yes"/>
      <point x="931" y="20"/>
      <point x="850" y="58"/>
      <point x="822" y="100" type="curve"/>
      <point x="819" y="81"/>
      <point x="827" y="67"/>
      <point x="843" y="57" type="curve"/>
      <point x="964" y="735" type="line"/>
      <point x="825" y="735" type="line"/>
      <point x="915" y="697" type="line"/>
      <point x="804" y="61" type="line"/>
      <point x="839" y="27"/>
      <point x="918" y="-11"/>
    </contour>
    <contour>
      <point x="754" y="721" type="curve" smooth="yes"/>
      <point x="834" y="721"/>
      <point x="881" y="704"/>
      <point x="936" y="666" type="curve"/>
      <point x="938" y="700" type="line"/>
      <point x="909" y="725"/>
      <point x="848" y="752"/>
      <point x="753" y="752" type="curve" smooth="yes"/>
      <point x="638" y="752"/>
      <point x="550" y="706"/>
      <point x="535" y="591" type="curve" smooth="yes"/>
      <point x="443" y="-193" type="line"/>
      <point x="479" y="-193" type="line"/>
      <point x="579" y="585" type="line" smooth="yes"/>
      <point x="592" y="684"/>
      <point x="654" y="721"/>
    </contour>
    <contour>
      <point x="356" y="706" type="curve" smooth="yes"/>
      <point x="405" y="706"/>
      <point x="444" y="690"/>
      <point x="455" y="687" type="curve"/>
      <point x="461" y="720" type="line"/>
      <point x="452" y="724"/>
      <point x="416" y="737"/>
      <point x="355" y="737" type="curve" smooth="yes"/>
      <point x="267" y="737"/>
      <point x="193" y="698"/>
      <point x="180" y="590" type="curve" smooth="yes"/>
      <point x="82" y="-223" type="line"/>
      <point x="118" y="-223" type="line"/>
      <point x="223" y="585" type="line" smooth="yes"/>
      <point x="235" y="676"/>
      <point x="279" y="706"/>
    </contour>
  </outline>
</glyph>
<glyph name="heartsuitwhite" format="2">
  <advance width="1050"/>
  <outline>
    <contour>
      <point x="168" y="528" type="curve" smooth="yes"/>
      <point x="166" y="594"/>
      <point x="213" y="641"/>
      <point x="300" y="641" type="curve" smooth="yes"/>
      <point x="406" y="641"/>
      <point x="483" y="541"/>
      <point x="523" y="461" type="curve"/>
      <point x="534" y="461" type="line"/>
      <point x="568" y="541"/>
      <point x="638" y="641"/>
      <point x="744" y="641" type="curve" smooth="yes"/>
      <point x="831" y="641"/>
      <point x="883" y="594"/>
      <point x="885" y="528" type="curve" smooth="yes"/>
      <point x="887" y="446"/>
      <point x="841" y="397"/>
      <point x="764" y="316" type="curve" smooth="yes"/>
      <point x="545" y="83" type="line"/>
      <point x="534" y="83" type="line"/>
      <point x="300" y="316" type="line" smooth="yes"/>
      <point x="220" y="397"/>
      <point x="170" y="446"/>
    </contour>
    <contour>
      <point x="83" y="535" type="curve" smooth="yes"/>
      <point x="85" y="437"/>
      <point x="142" y="375"/>
      <point x="244" y="273" type="curve" smooth="yes"/>
      <point x="529" y="-10" type="line"/>
      <point x="556" y="-10" type="line"/>
      <point x="823" y="273" type="line" smooth="yes"/>
      <point x="919" y="375"/>
      <point x="972" y="437"/>
      <point x="970" y="535" type="curve" smooth="yes"/>
      <point x="967" y="632"/>
      <point x="887" y="710"/>
      <point x="751" y="710" type="curve" smooth="yes"/>
      <point x="643" y="710"/>
      <point x="567" y="657"/>
      <point x="526" y="569" type="curve"/>
      <point x="477" y="657"/>
      <point x="397" y="710"/>
      <point x="289" y="710" type="curve" smooth="yes"/>
      <point x="154" y="710"/>
      <point x="80" y="632"/>
    </contour>
  </outline>
</glyph>
<glyph name="lira.alt" format="2">
  <advance width="652"/>
  <outline>
    <contour>
      <point x="9" y="0" type="line"/>
      <point x="558" y="0" type="line"/>
      <point x="583" y="170" type="line"/>
      <point x="555" y="170" type="line"/>
      <point x="528" y="74" type="line" smooth="yes"/>
      <point x="517" y="38"/>
      <point x="475" y="31"/>
      <point x="375" y="31" type="curve"/>
      <point x="46" y="31" type="line"/>
      <point x="47" y="24" type="line"/>
      <point x="189" y="64"/>
      <point x="254" y="154"/>
      <point x="251" y="257" type="curve" smooth="yes"/>
      <point x="249" y="341"/>
      <point x="206" y="417"/>
      <point x="204" y="504" type="curve" smooth="yes"/>
      <point x="201" y="608"/>
      <point x="262" y="687"/>
      <point x="409" y="687" type="curve" smooth="yes"/>
      <point x="499" y="687"/>
      <point x="555" y="657"/>
      <point x="586" y="625" type="curve"/>
      <point x="588" y="631"/>
      <point x="570" y="651"/>
      <point x="562" y="665" type="curve"/>
      <point x="547" y="571" type="line"/>
      <point x="598" y="571" type="line"/>
      <point x="612" y="661" type="line"/>
      <point x="578" y="686"/>
      <point x="516" y="718"/>
      <point x="408" y="718" type="curve" smooth="yes"/>
      <point x="235" y="718"/>
      <point x="156" y="623"/>
      <point x="160" y="505" type="curve" smooth="yes"/>
      <point x="163" y="408"/>
      <point x="209" y="324"/>
      <point x="211" y="257" type="curve" smooth="yes"/>
      <point x="214" y="142"/>
      <point x="144" y="76"/>
      <point x="15" y="36" type="curve"/>
    </contour>
    <contour>
      <point x="71" y="429" type="line"/>
      <point x="66" y="398" type="line"/>
      <point x="484" y="398" type="line"/>
      <point x="489" y="429" type="line"/>
    </contour>
    <contour>
      <point x="44" y="274" type="line"/>
      <point x="38" y="243" type="line"/>
      <point x="457" y="243" type="line"/>
      <point x="462" y="274" type="line"/>
    </contour>
  </outline>
</glyph>
<glyph name="r.italic" format="2">
  <advance width="479"/>
  <outline>
    <contour>
      <point x="444" y="515" type="line"/>
      <point x="436" y="517"/>
      <point x="420" y="518"/>
      <point x="404" y="518" type="curve" smooth="yes"/>
      <point x="314" y="518"/>
      <point x="254" y="460"/>
      <point x="223" y="377" type="curve"/>
      <point x="224" y="311" type="line"/>
      <point x="268" y="396"/>
      <point x="298" y="434"/>
      <point x="383" y="434" type="curve" smooth="yes"/>
      <point x="404" y="434"/>
      <point x="430" y="431"/>
      <point x="447" y="426" type="curve"/>
    </contour>
    <contour>
      <point x="52" y="0" type="line"/>
      <point x="369" y="0" type="line"/>
      <point x="367" y="45" type="line"/>
      <point x="347" y="45" type="line" smooth="yes"/>
      <point x="314" y="45"/>
      <point x="252" y="48"/>
      <point x="251" y="80" type="curve" smooth="yes"/>
      <point x="243" y="370" type="line"/>
      <point x="233" y="361" type="line"/>
      <point x="229" y="508" type="line"/>
      <point x="37" y="508" type="line"/>
      <point x="38" y="462" type="line"/>
      <point x="50" y="460" type="line" smooth="yes"/>
      <point x="108" y="450"/>
      <point x="137" y="444"/>
      <point x="137" y="415" type="curve" smooth="yes"/>
      <point x="147" y="81" type="line" smooth="yes"/>
      <point x="148" y="52"/>
      <point x="108" y="45"/>
      <point x="53" y="45" type="curve" smooth="yes"/>
      <point x="50" y="45" type="line"/>
    </contour>
  </outline>
</glyph>
<glyph name="three.lintab" format="2">
  <advance width="652"/>
  <outline>
    <contour>
      <point x="319" y="-10" type="curve" smooth="yes"/>
      <point x="474" y="-10"/>
      <point x="583" y="76"/>
      <point x="580" y="200" type="curve" smooth="yes"/>
      <point x="577" y="289"/>
      <point x="503" y="369"/>
      <point x="338" y="380" type="curve"/>
      <point x="392" y="369" type="line"/>
      <point x="393" y="379" type="line"/>
      <point x="338" y="372" type="line"/>
      <point x="491" y="372"/>
      <point x="597" y="441"/>
      <point x="594" y="555" type="curve" smooth="yes"/>
      <point x="591" y="644"/>
      <point x="514" y="718"/>
      <point x="363" y="718" type="curve" smooth="yes"/>
      <point x="262" y="718"/>
      <point x="191" y="682"/>
      <point x="159" y="660" type="curve"/>
      <point x="142" y="564" type="line"/>
      <point x="194" y="564" type="line"/>
      <point x="212" y="667" type="line"/>
      <point x="212" y="667"/>
      <point x="183" y="646"/>
      <point x="175" y="625" type="curve"/>
      <point x="201" y="651"/>
      <point x="268" y="687"/>
      <point x="365" y="687" type="curve" smooth="yes"/>
      <point x="490" y="687"/>
      <point x="548" y="628"/>
      <point x="550" y="555" type="curve" smooth="yes"/>
      <point x="553" y="443"/>
      <point x="461" y="389"/>
      <point x="300" y="389" type="curve" smooth="yes"/>
      <point x="240" y="389" type="line"/>
      <point x="236" y="358" type="line"/>
      <point x="311" y="358" type="line" smooth="yes"/>
      <point x="465" y="358"/>
      <point x="533" y="289"/>
      <point x="536" y="200" type="curve" smooth="yes"/>
      <point x="539" y="90"/>
      <point x="451" y="21"/>
      <point x="318" y="21" type="curve" smooth="yes"/>
      <point x="169" y="21"/>
      <point x="87" y="102"/>
      <point x="59" y="188" type="curve"/>
      <point x="24" y="175" type="line"/>
      <point x="63" y="60"/>
      <point x="167" y="-10"/>
    </contour>
  </outline>
</glyph>
<glyph name="whitecircle" format="2">
  <advance width="689"/>
  <outline>
    <contour>
      <point x="358" y="80" type="curve" smooth="yes"/>
      <point x="505" y="80"/>
      <point x="618" y="177"/>
      <point x="614" y="304" type="curve" smooth="yes"/>
      <point x="610" y="431"/>
      <point x="491" y="528"/>
      <point x="344" y="528" type="curve" smooth="yes"/>
      <point x="197" y="528"/>
      <point x="84" y="431"/>
      <point x="88" y="304" type="curve" smooth="yes"/>
      <point x="92" y="177"/>
      <point x="211" y="80"/>
    </contour>
    <contour>
      <point x="356" y="137" type="curve" smooth="yes"/>
      <point x="244" y="137"/>
      <point x="161" y="205"/>
      <point x="158" y="304" type="curve" smooth="yes"/>
      <point x="155" y="403"/>
      <point x="234" y="471"/>
      <point x="346" y="471" type="curve" smooth="yes"/>
      <point x="458" y="471"/>
      <point x="542" y="403"/>
      <point x="545" y="304" type="curve" smooth="yes"/>
      <point x="548" y="205"/>
      <point x="468" y="137"/>
    </contour>
  </outline>
</glyph>
<glyph name="whitesquare" format="2">
  <advance width="685"/>
  <outline>
    <contour>
      <point x="111" y="104" type="line"/>
      <point x="598" y="104" type="line"/>
      <point x="586" y="522" type="line"/>
      <point x="99" y="522" type="line"/>
    </contour>
    <contour>
      <point x="174" y="159" type="line"/>
      <point x="164" y="467" type="line"/>
      <point x="523" y="467" type="line"/>
      <point x="533" y="159" type="line"/>
    </contour>
  </outline>
</glyph>
